# xmcd CD database file
#
# Track frame offsets:
#	150
#	22877
#	44890
#	65425
#	83670
#	110145
#
# Disc length: 1859 seconds
#
# Revision: 3
# Processed by: cddbd v1.5.2PL0 Copyright (c) Steve Scherf et al.
# Submitted via: CDex 1.70beta2
#
DISCID=4c074106
DTITLE=DoCo（らんま１／２） - DoCo Second
DYEAR=1994
DGENRE=Soundtrack
TTITLE0=清く正しいクリスマス
TTITLE1=授業中の小学校
TTITLE2=終わらない夏休み
TTITLE3=かがやく空ときみの声
TTITLE4=恋がひとつ消えてしまったの
TTITLE5=複雑な両想い(Live Version)
EXTD=YEAR: 1994
EXTT0=
EXTT1=
EXTT2=
EXTT3=
EXTT4=
EXTT5=
PLAYORDER=
